<?xml version="1.0" encoding="UTF-8" standalone="no"?>
<!-- Created with Inkscape (http://www.inkscape.org/) -->

<svg
   width="32"
   height="32"
   viewBox="0 0 32 32"
   version="1.1"
   id="svg5"
   inkscape:version="1.1.1 (3bf5ae0d25, 2021-09-20)"
   sodipodi:docname="download.svg"
   xmlns:inkscape="http://www.inkscape.org/namespaces/inkscape"
   xmlns:sodipodi="http://sodipodi.sourceforge.net/DTD/sodipodi-0.dtd"
   xmlns="http://www.w3.org/2000/svg"
   xmlns:svg="http://www.w3.org/2000/svg">
  <sodipodi:namedview
     id="namedview7"
     pagecolor="#ffffff"
     bordercolor="#666666"
     borderopacity="1.0"
     inkscape:pageshadow="2"
     inkscape:pageopacity="0.0"
     inkscape:pagecheckerboard="0"
     inkscape:document-units="px"
     showgrid="false"
     inkscape:zoom="22.5"
     inkscape:cx="12.422222"
     inkscape:cy="20.888889"
     inkscape:window-width="1920"
     inkscape:window-height="1012"
     inkscape:window-x="0"
     inkscape:window-y="0"
     inkscape:window-maximized="1"
     inkscape:current-layer="layer1" />
  <defs
     id="defs2" />
  <g
     inkscape:label="Layer 1"
     inkscape:groupmode="layer"
     id="layer1">
    <path
       style="fill:none;stroke:#000000;stroke-width:1px;stroke-linecap:butt;stroke-linejoin:miter;stroke-opacity:1"
       d="m 3.3272569,18.094965 c 0,0 -0.9034214,-4.107537 -0.1262152,-5.922916 0.6808558,-1.590326 2.1715202,-3.0121834 3.8309027,-3.5012157 1.6950083,-0.4995315 5.2272566,0.8826389 5.2272566,0.8826389 0,0 2.63614,-3.2241058 4.525521,-3.5506944 1.881093,-0.3251561 4.021753,0.5296935 5.430903,1.8175347 0.964623,0.8815819 1.572917,3.5909725 1.572917,3.5909725 0,0 2.304686,-0.399979 3.251736,0.128993 1.417086,0.791509 2.768845,2.419377 2.715972,4.041666 -0.0606,1.859225 -3.407639,4.419445 -3.407639,4.419445 z"
       id="path857"
       sodipodi:nodetypes="csscsscsscc" />
    <path
       id="path1903"
       inkscape:transform-center-y="0.69853474"
       d="m 15.736805,26.846399 -1.424695,-5.408715 2.797569,0.03765 z"
       sodipodi:nodetypes="cccc" />
    <path
       style="fill:none;stroke:#000000;stroke-width:1px;stroke-linecap:butt;stroke-linejoin:miter;stroke-opacity:1"
       d="m 15.727951,14.296528 v 8.058507"
       id="path3212" />
  </g>
</svg>
